<?xml version="1.0" standalone="no"?>
<!DOCTYPE svg PUBLIC "-//W3C//DTD SVG 20010904//EN"
 "http://www.w3.org/TR/2001/REC-SVG-20010904/DTD/svg10.dtd">
<svg version="1.0" xmlns="http://www.w3.org/2000/svg"
 width="1280.000000pt" height="904.000000pt" viewBox="0 0 1280.000000 904.000000"
 preserveAspectRatio="xMidYMid meet">

<g transform="translate(0.000000,904.000000) scale(0.100000,-0.100000)"
fill="white" stroke="none">
<path d="M6300 8479 c-47 -4 -103 -9 -125 -12 -22 -3 -67 -9 -100 -12 -65 -7
-240 -37 -320 -55 -115 -25 -411 -111 -495 -144 -19 -8 -55 -22 -80 -31 -190
-74 -381 -170 -598 -300 -47 -28 -245 -160 -267 -177 -5 -5 -41 -32 -80 -61
-38 -28 -77 -59 -86 -67 -8 -8 -58 -51 -109 -95 -163 -140 -317 -300 -499
-520 -14 -17 -118 -159 -178 -245 -19 -26 -83 -128 -136 -215 -48 -79 -217
-406 -217 -420 0 -3 -12 -32 -26 -63 -43 -95 -100 -251 -134 -367 -17 -60 -36
-121 -41 -133 -13 -34 -88 -368 -93 -422 -3 -25 -9 -76 -15 -115 -42 -298 -49
-725 -18 -994 50 -423 137 -763 291 -1141 82 -200 294 -591 398 -735 159 -219
222 -297 357 -445 152 -166 302 -306 471 -438 58 -45 110 -86 115 -90 33 -27
178 -122 186 -122 5 0 9 -3 9 -8 0 -4 9 -12 19 -17 11 -6 78 -44 148 -86 107
-64 351 -189 368 -189 3 0 24 -9 48 -19 162 -73 410 -155 610 -202 193 -45
328 -66 574 -90 146 -13 596 -7 718 11 39 5 95 12 125 15 82 8 334 61 455 96
472 137 886 335 1228 587 31 23 58 42 61 42 2 0 15 9 28 20 12 11 52 43 88 71
117 92 173 142 316 284 122 121 315 335 301 335 -2 0 12 18 33 39 20 22 54 66
75 98 22 32 42 60 46 63 24 21 209 324 280 460 19 36 37 67 42 68 4 2 7 9 7
14 0 6 16 45 36 87 20 42 47 104 60 138 13 35 28 71 34 80 25 46 106 292 145
443 14 52 29 111 35 130 29 104 75 411 91 605 13 160 7 670 -10 780 -6 39 -22
142 -37 230 -14 88 -28 178 -31 200 -3 22 -9 44 -14 49 -5 6 -9 18 -9 27 0 24
-63 249 -95 339 -15 41 -33 93 -40 115 -50 154 -171 416 -275 595 -39 69 -81
141 -92 160 -31 53 -176 264 -198 288 -11 12 -20 24 -20 27 0 3 -13 20 -30 38
-16 18 -30 38 -30 45 0 6 -4 12 -9 12 -5 0 -22 18 -38 39 -56 76 -246 275
-370 388 -70 64 -212 181 -333 276 -42 33 -309 207 -335 218 -16 8 -35 18 -41
24 -6 5 -42 26 -80 45 -38 19 -70 38 -72 43 -2 4 -8 7 -13 7 -4 0 -57 23 -116
51 -60 28 -130 60 -158 70 -27 11 -59 23 -70 28 -200 87 -557 179 -875 226
-218 32 -559 42 -790 24z m650 -158 c101 -10 246 -33 390 -61 52 -10 265 -64
295 -75 11 -4 29 -10 40 -15 11 -4 61 -21 110 -36 50 -16 135 -48 190 -71 55
-24 104 -43 109 -43 5 0 17 -6 25 -13 9 -7 43 -25 77 -40 66 -29 149 -74 328
-179 56 -33 65 -39 121 -77 59 -41 238 -173 245 -181 3 -3 19 -16 35 -29 145
-110 417 -383 550 -550 28 -35 57 -70 66 -79 22 -24 80 -106 153 -216 34 -53
65 -94 68 -91 2 3 5 -1 5 -8 0 -6 12 -32 28 -56 74 -118 209 -386 271 -537 49
-123 94 -249 94 -268 0 -9 4 -16 9 -16 4 0 13 -21 19 -47 5 -27 18 -75 27
-108 20 -72 59 -240 81 -350 53 -266 79 -754 54 -990 -5 -49 -14 -139 -20
-200 -13 -129 -77 -454 -116 -585 -9 -30 -18 -68 -21 -85 -3 -16 -9 -32 -12
-35 -3 -3 -21 -52 -40 -110 -18 -58 -60 -167 -92 -243 -85 -198 -249 -517
-271 -525 -4 -2 -8 -8 -8 -13 0 -8 -137 -217 -151 -229 -3 -3 -34 -43 -69 -90
-53 -70 -107 -136 -195 -236 -92 -104 -341 -342 -435 -414 -18 -14 -47 -36
-64 -50 -66 -55 -185 -140 -194 -140 -6 0 -12 -4 -14 -9 -3 -8 -135 -91 -145
-91 -2 0 -19 -10 -36 -23 -18 -13 -54 -34 -82 -48 -27 -13 -52 -26 -55 -29
-12 -13 -129 -70 -144 -70 -9 0 -16 -4 -16 -8 0 -13 -147 -76 -360 -154 -30
-11 -66 -24 -80 -30 -27 -11 -159 -46 -315 -85 -254 -62 -532 -93 -845 -92
-623 0 -1203 150 -1755 454 -27 15 -66 36 -85 46 -43 24 -50 28 -178 114 -58
39 -112 75 -120 80 -9 6 -21 15 -27 20 -17 15 -65 51 -112 86 -24 17 -43 35
-43 40 0 5 -5 9 -11 9 -6 0 -16 6 -23 12 -7 7 -39 35 -70 62 -110 95 -361 351
-426 436 -19 25 -37 47 -40 50 -3 3 -39 50 -80 105 -40 55 -76 102 -80 105 -3
3 -19 28 -35 55 -15 28 -31 52 -34 55 -4 3 -26 37 -50 75 -24 39 -55 87 -68
108 -42 67 -210 420 -236 497 -9 25 -25 70 -37 100 -36 94 -70 193 -79 230 -5
19 -25 96 -44 171 -20 75 -41 167 -47 205 -64 397 -63 381 -64 734 -1 423 19
610 111 1000 8 36 19 74 23 85 5 11 16 49 25 85 18 68 62 194 122 345 46 116
162 359 174 363 5 2 9 8 9 13 0 9 82 155 127 228 13 20 28 46 35 59 6 12 15
22 20 22 4 0 8 6 8 13 0 7 11 24 25 39 14 15 25 30 25 33 0 8 131 181 164 218
14 15 26 30 26 33 0 3 12 18 28 33 15 15 55 59 89 97 83 94 144 155 247 249
126 115 130 118 216 185 24 19 50 41 58 47 7 7 39 29 70 50 31 20 62 41 67 47
6 6 35 27 65 46 30 19 57 37 60 40 3 3 14 10 26 16 11 7 67 38 125 71 142 81
414 213 439 213 7 0 24 6 38 14 45 24 192 73 392 131 161 47 504 105 624 105
34 0 68 5 76 10 19 14 465 7 620 -9z"/>
<path d="M6382 7985 c3 -220 5 -254 21 -278 56 -86 197 -100 279 -27 l43 38 1
163 c1 90 0 208 -3 262 l-5 98 -67 -3 -66 -3 -3 -253 c-2 -217 -5 -254 -18
-259 -35 -13 -39 13 -44 265 l-5 247 -68 1 -68 1 3 -252z"/>
<path d="M6837 8214 c-3 -5 -7 -27 -8 -49 -4 -39 -3 -40 34 -46 20 -3 40 -9
44 -12 3 -4 1 -53 -6 -109 -26 -227 -41 -362 -38 -364 1 -2 32 -6 68 -10 l65
-6 22 158 c11 88 24 186 28 219 9 86 17 96 63 89 34 -5 39 -4 44 17 4 13 7 38
7 54 l0 31 -92 12 c-151 20 -225 25 -231 16z"/>
<path d="M6061 8194 c-45 -7 -85 -15 -88 -17 -2 -3 -1 -137 3 -297 l7 -292 36
6 c20 3 50 6 68 6 32 0 32 0 35 58 l3 57 35 0 c32 0 35 -3 40 -35 9 -55 13
-57 80 -49 34 4 63 9 66 12 6 5 -11 66 -98 352 -73 239 -56 220 -187 199z m47
-91 c31 -129 57 -274 52 -284 -4 -6 -18 -9 -31 -7 -26 3 -29 16 -43 236 -6 95
6 124 22 55z"/>
<path d="M7314 8123 c-50 -25 -76 -86 -134 -310 -25 -100 -27 -138 -8 -184 18
-42 63 -72 131 -90 96 -24 170 25 200 130 25 86 57 220 67 280 10 58 -4 111
-38 138 -62 50 -158 66 -218 36z m126 -112 c0 -14 -13 -78 -29 -141 -59 -238
-74 -271 -108 -237 -15 15 -14 25 14 134 59 224 72 266 84 274 20 12 39 -2 39
-30z"/>
<path d="M5413 8026 c-39 -17 -74 -34 -77 -37 -3 -3 14 -73 39 -155 50 -166
50 -165 33 -158 -7 2 -40 57 -73 122 -83 161 -79 158 -146 135 -30 -11 -68
-27 -85 -36 l-32 -16 85 -203 c47 -112 94 -228 105 -258 11 -30 24 -58 27 -63
11 -11 63 2 90 22 l24 18 -30 74 c-17 41 -56 136 -88 212 -32 75 -55 140 -51
144 10 11 18 -2 130 -207 59 -107 108 -196 110 -197 2 -2 60 16 74 23 2 1 -11
48 -29 105 -17 57 -44 147 -59 199 -16 52 -33 108 -39 124 -8 19 -8 33 -2 39
6 6 17 -8 32 -39 24 -52 107 -255 140 -341 11 -29 24 -53 28 -53 16 0 101 41
101 49 0 4 -22 61 -49 127 -27 65 -61 148 -76 184 -14 36 -32 79 -40 95 -7 17
-23 51 -34 78 -11 26 -24 47 -28 46 -4 -1 -40 -15 -80 -33z"/>
<path d="M7742 8017 c-6 -7 -30 -59 -55 -117 -25 -58 -56 -130 -70 -160 -14
-30 -36 -82 -50 -115 -14 -33 -32 -73 -41 -89 -8 -16 -13 -33 -10 -37 4 -7 90
-49 100 -49 6 0 77 155 149 323 20 48 41 87 46 87 14 0 11 -13 -37 -168 -79
-251 -84 -267 -84 -274 0 -11 71 -31 79 -22 4 5 54 92 110 194 57 102 109 192
117 200 31 32 12 -23 -70 -208 -46 -104 -87 -199 -90 -210 -6 -17 1 -24 40
-41 59 -26 63 -26 73 2 5 13 28 63 50 111 23 49 41 90 41 92 0 2 12 29 26 61
72 156 102 238 92 251 -6 6 -14 12 -18 12 -6 0 -93 38 -132 58 -3 2 -41 -58
-83 -133 -43 -74 -81 -138 -86 -141 -14 -8 -11 20 7 73 9 26 29 89 44 140 30
101 31 99 -30 126 -90 40 -109 46 -118 34z"/>
<path d="M4849 7762 c-15 -9 -48 -30 -75 -46 -27 -16 -51 -31 -53 -33 -4 -3
77 -199 90 -218 4 -5 21 -46 39 -90 56 -138 100 -225 113 -225 7 0 29 11 49
25 20 14 42 25 47 25 14 0 14 4 -6 62 -18 48 -17 50 1 64 29 21 44 17 60 -14
27 -51 36 -54 94 -21 28 17 52 37 52 44 0 8 -13 29 -28 47 -16 18 -68 83 -116
143 -49 61 -103 126 -120 145 -17 19 -44 52 -59 73 -31 40 -48 44 -88 19z m48
-133 c26 -39 55 -81 63 -94 8 -12 30 -43 48 -68 l32 -46 -29 -16 c-36 -18 -25
-32 -112 145 -58 117 -70 150 -54 150 2 0 25 -32 52 -71z"/>
<path d="M8279 7699 c-25 -15 -57 -55 -109 -137 -41 -65 -77 -119 -80 -122
-17 -17 -50 -106 -50 -137 0 -92 122 -178 225 -159 43 8 68 34 152 161 137
206 151 259 88 332 -66 77 -156 102 -226 62z m132 -95 c11 -14 10 -22 -7 -53
-42 -74 -186 -296 -198 -303 -41 -27 -57 12 -26 66 27 47 115 186 128 201 4 6
11 17 15 25 18 40 52 79 68 80 4 0 13 -7 20 -16z"/>
<path d="M4475 7521 c-64 -30 -116 -91 -122 -143 -4 -36 0 -50 24 -84 15 -23
43 -55 62 -70 34 -28 37 -29 143 -26 61 2 116 -2 127 -7 17 -10 61 -70 61 -84
0 -9 -30 -37 -40 -37 -5 0 -26 18 -48 41 l-39 41 -46 -33 c-26 -18 -47 -38
-47 -44 0 -16 81 -92 111 -103 43 -17 126 18 176 73 69 75 66 131 -10 216 -56
62 -86 72 -193 64 -100 -7 -123 -1 -150 40 -18 28 -11 65 14 65 9 0 28 -12 43
-26 l27 -26 46 33 c25 19 45 39 46 45 0 7 -18 28 -40 48 -46 42 -83 46 -145
17z"/>
<path d="M8634 7483 l-28 -36 32 -27 c18 -15 32 -30 32 -35 0 -4 -33 -49 -73
-99 -40 -50 -105 -132 -145 -183 l-71 -92 47 -40 c26 -23 52 -41 57 -41 6 1
26 22 45 47 19 26 40 51 46 57 12 13 86 105 129 161 17 21 42 52 57 69 l26 31
31 -23 c40 -29 45 -28 77 14 23 30 25 37 13 48 -50 45 -229 186 -237 186 -5 0
-22 -17 -38 -37z"/>
<path d="M8974 7243 c-11 -10 -71 -75 -134 -142 -63 -68 -143 -154 -177 -190
-35 -36 -63 -71 -63 -78 0 -11 79 -93 91 -93 3 0 46 44 95 97 49 54 125 135
169 182 152 160 143 139 86 195 -48 47 -49 48 -67 29z"/>
<path d="M4074 7169 c-49 -44 -89 -86 -89 -94 0 -12 72 -90 313 -337 41 -43
78 -78 81 -78 3 0 27 20 54 45 l47 44 -77 81 c-100 106 -110 119 -92 131 28
17 44 8 128 -76 46 -47 87 -85 91 -85 3 0 25 19 48 43 l42 42 -77 78 c-109
111 -118 115 -189 67 -51 -36 -56 -28 -14 25 37 47 38 72 3 117 -41 52 -86 78
-136 78 -40 0 -50 -6 -133 -81z m156 -67 c44 -43 46 -49 26 -78 -14 -18 -17
-17 -67 32 -45 45 -50 54 -38 68 21 23 34 20 79 -22z"/>
<path d="M7053 7170 c-18 -11 -33 -25 -33 -31 0 -6 -9 -18 -19 -27 -25 -22
-121 -202 -121 -228 0 -14 15 -24 60 -40 66 -23 66 -23 94 41 44 99 96 143
111 95 8 -24 33 -26 42 -4 9 25 73 10 148 -36 36 -22 67 -40 69 -40 14 0 11
60 -4 90 -24 47 -129 149 -183 177 -54 28 -121 30 -164 3z"/>
<path d="M5986 7119 c-61 -72 -91 -168 -75 -238 14 -62 43 -105 146 -208 179
-182 216 -252 293 -563 24 -95 110 -393 115 -398 6 -6 64 114 90 183 21 59 20
97 -6 140 -3 6 -18 51 -33 100 -16 50 -38 122 -51 160 -53 156 -58 324 -15
499 12 48 19 91 16 94 -7 6 -20 7 -229 18 -209 10 -207 8 -207 145 0 54 -4 99
-9 99 -5 0 -21 -14 -35 -31z m325 -309 c55 0 69 -19 69 -95 0 -58 -3 -66 -25
-81 -23 -15 -33 -15 -100 -3 l-74 13 -7 43 c-13 88 14 138 70 128 16 -3 46 -5
67 -5z"/>
<path d="M6218 6747 c-15 -28 -1 -66 26 -73 13 -3 38 -4 57 -2 32 3 34 5 34
43 l0 40 -53 5 c-45 5 -55 3 -64 -13z"/>
<path d="M6269 7125 c-1 -3 -2 -17 -3 -32 -1 -16 -5 -46 -9 -68 -10 -53 0 -64
59 -67 43 -3 49 0 52 18 2 11 -13 44 -33 73 -19 29 -35 57 -35 61 0 9 -29 22
-31 15z"/>
<path d="M9057 6998 c-148 -181 -277 -343 -277 -348 1 -3 34 -40 73 -82 l73
-78 121 83 c66 45 165 114 219 152 54 39 107 73 116 77 29 12 21 41 -25 86
-47 46 -50 48 -69 29 -7 -7 -42 -34 -78 -60 -78 -58 -74 -54 -181 -145 -77
-64 -117 -88 -107 -63 2 4 70 77 151 162 82 85 154 164 159 176 9 18 5 29 -27
67 -21 25 -43 46 -50 46 -8 0 -51 -46 -98 -102z"/>
<path d="M6556 6983 c-3 -10 -10 -43 -15 -73 -6 -30 -18 -84 -26 -120 -8 -36
-14 -80 -15 -99 0 -32 1 -33 31 -27 17 3 47 6 66 6 33 0 35 2 30 27 -9 48 20
119 64 157 l41 34 -7 56 -7 56 -78 0 c-66 0 -79 -3 -84 -17z"/>
<path d="M3817 6904 c-62 -40 -97 -98 -97 -158 0 -46 16 -88 41 -106 8 -6 138
-121 153 -135 44 -42 123 -96 153 -104 53 -15 88 -3 142 48 95 89 93 169 -7
262 -230 216 -298 250 -385 193z m203 -219 c137 -114 154 -133 144 -159 -9
-23 -37 -20 -66 7 -13 12 -51 44 -84 72 -32 27 -64 54 -70 60 -7 5 -37 32 -68
58 -57 50 -65 64 -44 85 16 16 39 2 188 -123z"/>
<path d="M6744 6808 c-47 -22 -60 -111 -21 -144 12 -11 54 -39 94 -62 79 -46
91 -58 74 -75 -6 -6 -11 -19 -11 -29 0 -10 -5 -18 -11 -18 -5 0 -19 -20 -30
-44 -10 -24 -26 -47 -35 -50 -10 -4 -38 5 -66 19 -51 27 -56 25 -33 -15 10
-18 14 -59 15 -141 0 -97 -4 -129 -24 -190 -36 -108 -100 -266 -136 -332 -17
-32 -28 -62 -25 -67 4 -6 30 -10 60 -10 l54 0 46 73 c54 85 296 490 335 562
16 28 60 103 99 167 39 65 71 121 71 126 0 5 7 15 15 22 24 20 18 55 -12 71
-16 7 -57 31 -92 52 -35 20 -80 42 -100 47 -20 5 -70 18 -111 29 -82 23 -124
25 -156 9z"/>
<path d="M7096 6812 c-9 -15 160 -130 173 -117 3 4 -3 13 -14 21 -11 8 -31 24
-44 36 -34 29 -92 68 -102 68 -4 0 -10 -4 -13 -8z"/>
<path d="M9439 6742 c-4 -9 -85 -72 -316 -245 -67 -51 -121 -97 -118 -104 5
-14 145 -193 152 -193 10 0 73 56 73 65 0 6 -11 22 -25 37 -36 39 -31 58 28
101 l52 38 28 -36 c16 -19 33 -35 37 -35 11 0 70 50 70 58 0 4 -12 20 -26 35
-31 34 -27 49 25 81 46 29 58 27 86 -14 11 -17 22 -30 25 -30 3 0 22 15 43 33
l39 32 -69 90 c-63 83 -96 110 -104 87z"/>
<path d="M4664 6597 c-84 -84 -152 -146 -453 -412 -19 -16 -39 -35 -45 -40 -6
-6 -58 -53 -116 -104 -58 -52 -130 -117 -160 -145 -30 -28 -100 -92 -155 -141
-55 -49 -103 -94 -107 -100 -9 -14 84 -119 100 -114 6 2 35 27 64 54 29 28 94
86 143 130 88 78 259 233 360 326 27 26 68 62 89 80 22 19 51 45 65 59 14 14
59 54 100 90 40 36 83 74 95 85 13 11 55 49 94 84 40 35 72 67 72 71 0 11 -91
120 -99 119 -3 0 -25 -19 -47 -42z"/>
<path d="M5869 6573 l-42 -67 22 -15 c136 -97 144 -111 117 -201 -15 -50 -21
-53 -132 -65 -38 -4 -75 -12 -81 -17 -8 -7 -13 -36 -13 -79 0 -79 -9 -73 131
-92 l83 -12 15 -69 14 -68 -34 -32 c-19 -17 -53 -44 -77 -59 -48 -31 -49 -39
-6 -114 31 -53 51 -55 149 -13 38 17 73 30 77 30 11 0 98 -94 98 -107 0 -7
-16 -46 -35 -89 -19 -42 -35 -80 -35 -85 0 -7 50 -42 117 -82 7 -5 35 22 74
73 69 89 60 86 164 56 l40 -12 15 -94 c8 -52 19 -101 23 -107 12 -18 131 -17
146 1 6 8 16 51 21 96 5 45 14 88 20 95 6 7 37 18 71 25 59 13 60 13 89 -15
15 -15 43 -49 62 -76 18 -27 37 -49 41 -49 15 0 88 41 107 60 19 19 19 22 4
62 -9 24 -20 52 -25 63 -32 74 -32 74 17 121 26 25 55 44 67 44 12 0 53 -14
92 -30 84 -36 88 -36 109 -6 19 30 56 95 56 100 0 2 -34 31 -76 66 -83 68 -81
60 -54 161 10 36 13 38 58 44 26 3 73 11 105 17 l57 12 0 78 c0 88 11 79 -119
98 -41 6 -80 15 -87 21 -7 5 -14 26 -16 47 -3 20 -8 45 -12 54 -9 20 40 74
106 118 21 14 38 32 38 40 0 28 -60 120 -78 119 -36 -1 -53 -17 -100 -94 -110
-182 -112 -187 -87 -285 42 -165 -23 -381 -151 -506 -83 -81 -223 -141 -356
-151 -75 -6 -196 21 -281 64 -139 69 -249 216 -278 368 -24 125 6 315 59 377
20 24 9 57 -38 114 -22 27 -40 51 -40 55 0 8 -147 79 -165 79 -2 0 -22 -30
-46 -67z"/>
<path d="M8476 6586 c-25 -30 -46 -58 -46 -63 0 -8 87 -89 281 -264 16 -15 70
-64 120 -110 112 -102 97 -88 199 -179 47 -41 87 -77 90 -80 3 -3 45 -41 95
-85 49 -44 119 -108 155 -142 75 -71 139 -123 151 -123 10 0 89 98 89 110 0
10 -73 79 -156 148 -34 28 -104 90 -155 138 -96 90 -122 114 -244 224 -38 35
-72 67 -75 70 -3 3 -107 97 -232 208 l-226 201 -46 -53z"/>
<path d="M6700 6588 c1 -16 75 -64 113 -73 48 -12 32 22 -25 55 -56 32 -88 38
-88 18z"/>
<path d="M3554 6549 c-16 -12 -44 -43 -62 -68 -17 -25 -45 -65 -62 -89 -29
-42 -39 -72 -22 -72 5 0 47 -27 93 -59 230 -162 360 -251 367 -251 10 1 113
145 140 198 29 55 24 94 -16 129 -15 13 -94 69 -176 125 -169 114 -207 127
-262 87z m121 -159 c39 -28 88 -62 110 -77 107 -70 132 -102 104 -130 -9 -9
-37 6 -110 54 -55 36 -99 70 -99 75 0 4 -5 8 -10 8 -6 0 -35 16 -65 36 -67 45
-74 80 -15 83 8 1 47 -22 85 -49z"/>
<path d="M6661 6527 c-13 -17 1 -31 72 -72 36 -21 51 -25 60 -16 14 14 -9 38
-74 75 -38 22 -48 24 -58 13z"/>
<path d="M4755 6338 c-56 -51 -139 -127 -185 -168 -47 -41 -107 -95 -134 -120
-64 -60 -49 -46 -231 -209 -88 -80 -198 -179 -245 -222 -47 -42 -102 -91 -122
-110 -24 -20 -38 -42 -38 -56 0 -40 40 -28 106 30 32 29 75 66 94 83 19 16 66
58 105 94 105 96 241 219 410 370 83 74 152 137 155 140 3 3 56 52 118 109 84
78 112 109 110 125 -6 45 -41 29 -143 -66z"/>
<path d="M8335 6420 c-12 -19 5 -46 56 -90 28 -24 67 -59 87 -78 21 -19 78
-70 127 -115 50 -44 115 -103 145 -131 30 -28 98 -89 150 -135 52 -46 120
-107 150 -135 138 -127 310 -280 335 -295 27 -17 58 -8 53 16 -3 15 -146 150
-447 421 -103 93 -417 377 -471 426 -136 124 -168 144 -185 116z"/>
<path d="M6606 6335 c-32 -64 -31 -94 6 -114 37 -21 58 -2 58 53 0 46 -17 116
-28 116 -4 0 -20 -25 -36 -55z"/>
<path d="M4884 6238 c-44 -40 -113 -102 -153 -138 -41 -36 -86 -76 -100 -90
-14 -14 -71 -65 -126 -115 -102 -90 -137 -123 -255 -230 -36 -33 -128 -116
-203 -184 -76 -68 -141 -129 -144 -137 -6 -16 14 -44 31 -44 6 0 25 12 41 28
17 15 73 65 125 112 90 80 121 109 265 240 33 31 83 75 110 99 28 24 77 69
110 100 33 31 94 85 135 121 41 36 106 95 145 131 38 37 87 82 109 101 41 37
46 71 10 76 -14 2 -46 -21 -100 -70z"/>
<path d="M8237 6303 c-19 -19 3 -49 101 -140 59 -55 127 -118 151 -139 25 -21
52 -46 61 -54 8 -8 78 -71 155 -139 77 -68 147 -131 156 -140 9 -9 49 -45 89
-81 41 -36 101 -90 134 -121 221 -203 221 -204 245 -175 15 18 2 47 -30 69
-11 8 -48 41 -82 74 -34 32 -105 96 -157 143 -52 47 -113 101 -135 121 -22 20
-119 107 -215 195 -96 87 -220 199 -275 248 -55 49 -104 94 -110 100 -29 34
-74 54 -88 39z"/>
<path d="M5009 6137 c-68 -65 -228 -211 -314 -288 -27 -24 -52 -46 -55 -49 -3
-3 -52 -48 -110 -99 -58 -52 -137 -124 -175 -160 -39 -36 -122 -112 -185 -168
-63 -55 -128 -115 -144 -132 l-29 -30 55 -68 c31 -37 64 -77 74 -88 32 -34
188 -217 235 -275 24 -30 70 -82 101 -115 31 -33 67 -73 80 -90 61 -80 78 -85
134 -43 24 18 46 40 49 48 6 15 4 18 -87 126 -58 68 -66 89 -48 124 9 16 188
182 350 323 19 17 109 99 200 181 224 205 238 216 262 216 21 0 89 -63 158
-148 l35 -43 48 46 c48 48 59 81 34 107 -7 7 -54 63 -106 123 -52 61 -115 135
-141 165 -26 30 -66 78 -89 105 -46 54 -130 152 -146 169 -5 6 -32 37 -58 69
-27 31 -52 57 -55 57 -4 0 -37 -29 -73 -63z m-144 -443 c100 -47 159 -142 159
-254 -1 -100 -60 -196 -149 -243 -56 -30 -164 -30 -221 0 -97 52 -163 171
-151 275 11 93 87 196 163 223 53 19 158 19 199 -1z"/>
<path d="M8115 6158 c-15 -18 -46 -53 -69 -78 -23 -25 -51 -57 -62 -72 -24
-30 -96 -116 -164 -192 -24 -28 -52 -60 -61 -71 -254 -300 -242 -275 -163
-340 51 -42 55 -41 111 30 91 115 110 128 156 104 35 -19 52 -34 352 -310 89
-83 258 -234 335 -300 41 -36 83 -80 94 -98 17 -30 18 -35 3 -64 -8 -18 -43
-62 -76 -99 -34 -36 -61 -70 -61 -75 0 -12 59 -67 85 -81 29 -15 53 2 123 85
33 40 66 79 74 86 7 8 58 67 113 132 55 65 153 179 218 253 64 74 117 139 116
146 0 6 -26 34 -58 61 -72 63 -395 353 -437 391 -16 16 -73 67 -125 113 -51
47 -114 104 -139 127 -71 67 -104 97 -141 128 -19 16 -66 58 -105 93 -40 34
-77 63 -82 63 -6 0 -22 -15 -37 -32z m460 -467 c104 -47 155 -129 155 -249 0
-112 -44 -185 -145 -243 -55 -31 -163 -32 -220 -2 -47 25 -105 84 -131 133
-28 52 -26 181 3 235 27 51 88 110 133 129 49 21 155 20 205 -3z"/>
<path d="M5134 5199 c-10 -12 -61 -57 -111 -101 -51 -44 -93 -85 -93 -92 0
-13 68 -113 173 -256 226 -305 212 -283 198 -309 -15 -27 -44 -171 -37 -178 3
-4 16 3 29 15 13 12 37 26 54 32 34 12 34 12 241 -47 68 -19 127 -32 130 -29
4 3 42 41 85 84 91 90 89 74 32 272 -19 67 -35 137 -35 155 0 41 -10 43 -101
31 l-66 -9 -228 226 c-126 125 -234 227 -240 227 -7 0 -20 -10 -31 -21z"/>
<path d="M7834 4994 l-229 -225 -60 6 c-33 3 -69 7 -80 8 -15 1 -21 -5 -23
-23 -2 -14 -19 -86 -39 -160 -55 -209 -58 -191 38 -288 53 -53 88 -81 98 -78
111 34 292 77 322 78 28 0 50 -8 76 -28 l36 -27 -6 59 c-3 33 -13 76 -22 97
-8 20 -15 42 -15 49 0 7 45 73 99 147 125 168 254 345 275 380 4 6 3 17 -1 24
-11 19 -222 207 -232 207 -4 0 -111 -102 -237 -226z"/>
<path d="M6175 4895 c-75 -34 -144 -63 -187 -80 -90 -33 -89 -28 -34 -252 l49
-195 -85 -82 c-47 -44 -101 -101 -121 -126 -35 -43 -36 -44 -69 -33 -82 29
-313 84 -341 81 -29 -3 -34 -9 -69 -93 -69 -160 -89 -224 -78 -245 5 -10 40
-35 77 -55 103 -57 253 -157 253 -169 1 -10 1 -322 0 -337 0 -4 -72 -49 -159
-100 -88 -52 -165 -104 -172 -116 -11 -20 -5 -41 45 -167 32 -80 66 -152 75
-160 23 -21 41 -20 146 10 50 14 115 32 145 39 30 7 67 16 82 20 24 6 33 1 75
-46 58 -65 94 -102 152 -153 49 -44 49 -28 0 -201 -44 -157 -57 -242 -38 -259
8 -7 78 -39 157 -71 107 -43 147 -56 162 -49 11 5 62 83 113 174 l94 165 174
0 174 0 80 -143 c44 -78 92 -157 106 -174 24 -31 27 -32 60 -21 103 35 275
113 287 131 12 18 8 42 -32 197 -25 97 -46 187 -46 199 0 14 19 39 55 69 30
26 80 79 112 117 31 39 64 70 72 69 9 0 95 -22 191 -49 189 -52 197 -52 225 0
36 66 107 271 101 292 -5 21 -48 51 -165 118 -33 19 -155 92 -160 96 -2 2 -4
83 -4 181 l0 178 89 57 c49 32 122 76 161 98 52 29 75 49 79 66 4 17 -10 66
-46 157 -28 72 -58 142 -66 155 -19 29 -45 28 -168 -7 -55 -16 -134 -38 -175
-47 l-74 -18 -15 24 c-9 14 -60 70 -115 125 l-100 99 47 192 c37 148 45 197
37 212 -10 19 -282 142 -313 142 -25 0 -34 -14 -141 -210 -10 -19 -33 -59 -50
-87 l-31 -53 -172 0 -172 0 -68 118 c-37 64 -81 142 -98 172 -35 61 -58 70
-111 45z m565 -585 c211 -34 392 -143 532 -323 123 -157 177 -360 157 -590
-10 -119 -30 -188 -85 -301 -99 -201 -273 -352 -478 -415 -455 -140 -910 122
-1032 595 -23 89 -25 112 -21 234 6 151 21 218 74 330 158 331 508 524 853
470z"/>
<path d="M6528 4205 c-108 -18 -171 -41 -260 -92 -106 -61 -162 -114 -229
-215 -99 -152 -134 -276 -126 -453 11 -249 132 -460 338 -588 224 -140 483
-147 711 -19 138 76 225 169 298 317 57 115 74 189 74 325 0 119 -18 202 -66
309 -84 186 -260 341 -448 394 -45 13 -206 40 -213 36 -1 -1 -37 -7 -79 -14z
m238 -440 c62 -30 97 -69 133 -145 37 -78 37 -202 2 -275 -34 -67 -85 -122
-145 -153 -70 -36 -200 -38 -262 -5 -60 32 -120 94 -151 155 -23 45 -27 65
-27 138 0 90 15 133 70 207 30 40 98 88 145 102 58 18 174 6 235 -24z"/>
<path d="M9322 2977 c-12 -13 -22 -28 -22 -34 0 -18 67 -63 84 -57 11 4 19 -2
26 -20 13 -36 30 -33 30 7 -1 42 -18 71 -60 102 -18 14 -34 25 -35 25 -1 0
-11 -10 -23 -23z"/>
<path d="M3695 2933 c-67 -35 -71 -46 -31 -96 13 -17 16 -17 55 10 28 20 38
33 35 46 -4 13 1 17 25 17 38 0 40 17 5 30 -34 13 -54 12 -89 -7z"/>
<path d="M9241 2864 c-12 -15 -21 -30 -21 -34 0 -17 68 -59 88 -53 16 4 21 0
24 -18 6 -42 28 -34 28 10 0 34 -6 46 -42 81 -23 22 -45 40 -49 40 -4 0 -17
-12 -28 -26z"/>
<path d="M3795 2831 c-41 -14 -74 -34 -80 -48 -3 -8 5 -28 18 -43 l24 -28 41
27 c30 19 40 31 36 44 -4 14 1 17 25 17 38 0 40 17 5 30 -28 11 -40 11 -69 1z"/>
<path d="M3869 2737 c-41 -19 -107 -81 -120 -113 -7 -19 -9 -65 -4 -135 l6
-106 -36 -31 c-38 -34 -66 -40 -84 -18 -16 19 -5 40 35 71 19 14 34 29 34 34
0 12 -70 91 -81 91 -5 0 -30 -21 -54 -46 -40 -41 -45 -51 -45 -93 0 -80 76
-173 159 -194 33 -8 80 13 131 59 64 58 74 84 65 174 -10 101 -8 128 10 157
17 26 52 43 73 36 21 -9 13 -46 -15 -70 -29 -25 -32 -17 32 -91 l29 -32 37 36
c48 47 56 80 31 136 -27 60 -69 108 -117 129 -46 21 -51 22 -86 6z"/>
<path d="M9145 2731 c-47 -30 -102 -93 -115 -133 -21 -66 12 -124 100 -177 44
-27 74 -26 182 1 83 21 88 22 123 5 38 -18 62 -55 52 -81 -9 -24 -34 -19 -76
14 -24 20 -44 28 -54 24 -9 -3 -17 -9 -17 -13 0 -3 -14 -22 -31 -41 l-31 -35
29 -23 c72 -59 140 -67 201 -23 51 36 92 108 92 160 0 41 -4 49 -52 96 -30 28
-71 56 -94 64 -42 14 -50 12 -200 -31 -37 -10 -45 -9 -78 11 -30 19 -36 29
-34 50 4 34 30 38 67 12 l29 -21 36 43 c20 24 36 49 36 55 0 16 -82 62 -111
62 -13 0 -37 -9 -54 -19z"/>
<path d="M3988 2323 c-204 -206 -217 -233 -159 -325 54 -84 119 -117 194 -97
35 9 71 40 210 177 92 91 167 171 167 176 0 11 -90 99 -96 94 -2 -2 -82 -81
-177 -176 -126 -125 -179 -171 -191 -166 -39 15 -15 50 155 220 l171 172 -45
46 c-25 25 -50 46 -54 46 -5 0 -84 -75 -175 -167z"/>
<path d="M8873 2421 c-26 -21 -72 -63 -101 -94 l-54 -55 206 -208 205 -209 53
52 53 53 -94 94 c-81 82 -93 97 -81 110 7 9 17 16 24 16 6 0 51 -41 101 -90
l91 -90 47 48 48 49 -91 86 c-92 88 -122 103 -152 74 -22 -21 -68 -48 -68 -40
0 5 14 26 30 47 17 22 30 47 30 55 0 24 -75 106 -114 125 -52 25 -79 20 -133
-23z m99 -118 c40 -39 49 -70 22 -80 -10 -4 -32 11 -65 43 -45 44 -48 50 -32
61 25 19 34 16 75 -24z"/>
<path d="M8588 2163 l-88 -75 32 -42 c18 -22 35 -43 38 -46 3 -3 39 -45 80
-95 41 -49 89 -106 106 -125 18 -19 51 -59 73 -87 23 -29 44 -53 47 -53 9 0
188 152 193 162 3 9 -57 78 -68 78 -4 0 -20 -14 -38 -30 -18 -17 -37 -30 -43
-30 -10 0 -67 59 -84 87 -6 11 2 25 24 48 l32 33 -27 36 c-15 20 -31 36 -34
36 -4 0 -18 -11 -31 -25 -32 -34 -54 -31 -81 8 -13 17 -27 34 -31 35 -17 8 -6
31 27 56 19 15 35 30 35 34 0 11 -57 72 -66 71 -5 0 -48 -34 -96 -76z"/>
<path d="M4421 2181 c-28 -7 -87 -65 -107 -104 -21 -39 -19 -89 5 -177 27 -97
27 -109 -9 -148 -62 -68 -104 -11 -44 60 l26 32 -43 38 c-24 20 -49 38 -56 38
-15 0 -68 -76 -76 -109 -11 -45 5 -85 58 -138 54 -53 115 -80 159 -69 50 12
146 137 146 189 0 16 -11 61 -25 99 -30 83 -31 103 -5 146 14 22 27 32 45 32
35 0 42 -26 16 -60 -11 -16 -21 -33 -21 -37 0 -4 21 -23 45 -42 50 -37 58 -35
95 25 29 46 19 91 -32 149 -52 59 -124 90 -177 76z"/>
<path d="M8345 1974 c-66 -47 -121 -91 -122 -97 -1 -7 11 -27 27 -46 l28 -33
31 22 c17 12 35 20 41 18 5 -2 68 -86 139 -187 72 -101 133 -186 136 -189 6
-6 115 66 115 76 0 7 -168 249 -203 292 -65 81 -71 108 -26 134 26 15 28 20
17 34 -24 32 -52 62 -57 62 -3 0 -60 -39 -126 -86z"/>
<path d="M4630 1838 c-52 -78 -123 -183 -157 -234 -35 -51 -63 -97 -63 -101 0
-9 97 -73 110 -73 4 0 36 43 70 95 34 52 65 95 67 95 2 0 24 -12 49 -26 65
-38 109 -36 149 7 44 49 105 155 105 185 0 34 -59 95 -144 148 -41 25 -78 46
-82 46 -5 0 -52 -64 -104 -142z m200 -23 c15 -18 7 -42 -30 -94 -22 -29 -37
-41 -55 -41 -35 0 -32 24 11 93 38 59 53 67 74 42z"/>
<path d="M8087 1816 c-45 -16 -102 -58 -123 -92 -35 -52 11 -179 78 -219 16
-9 69 -20 126 -26 91 -10 99 -12 125 -42 18 -20 27 -43 27 -64 0 -29 -3 -33
-25 -33 -19 0 -31 9 -43 31 -37 67 -33 65 -96 30 l-56 -33 17 -30 c43 -71 66
-90 120 -95 61 -6 121 18 171 70 49 50 55 85 26 147 -53 114 -87 137 -212 141
-82 4 -94 7 -116 29 -34 34 -39 83 -11 94 15 5 28 -5 58 -48 13 -17 16 -17 65
14 29 17 52 35 52 39 0 3 -12 23 -26 44 -38 57 -83 69 -157 43z"/>
<path d="M5012 1772 c-11 -15 -55 -95 -100 -179 -45 -84 -100 -185 -122 -226
-22 -41 -40 -77 -40 -80 0 -5 58 -39 166 -97 57 -31 58 -31 87 26 15 29 15 33
-1 46 -9 7 -29 20 -44 28 -30 14 -36 41 -15 62 8 7 17 26 21 41 9 36 31 44 66
23 16 -9 33 -16 38 -16 11 0 52 61 52 77 0 6 -18 18 -40 28 -22 10 -40 20 -40
22 0 2 11 26 25 53 27 53 46 61 81 35 31 -23 47 -18 71 24 25 44 25 45 -47 81
-25 13 -47 25 -50 29 -3 3 -24 16 -47 28 l-43 21 -18 -26z"/>
<path d="M5245 1604 c-14 -33 -29 -68 -34 -79 -5 -11 -13 -31 -19 -45 -39 -91
-142 -345 -142 -350 0 -4 23 -17 50 -28 l50 -21 28 62 c16 34 41 96 57 137 25
66 55 117 55 93 0 -8 -9 -71 -34 -233 -8 -52 -14 -95 -13 -96 33 -16 99 -44
106 -44 5 0 21 30 36 68 15 37 33 81 40 97 60 133 153 371 147 376 -4 3 -27
14 -51 23 -53 20 -45 29 -106 -124 -75 -192 -82 -189 -55 19 11 84 17 157 14
163 -6 10 -38 24 -80 34 -22 6 -26 1 -49 -52z"/>
<path d="M7775 1645 c-16 -8 -56 -25 -87 -39 l-57 -24 10 -34 c5 -18 34 -123
65 -233 87 -316 84 -311 132 -286 9 5 34 17 54 25 35 16 36 17 26 49 -16 51
-14 68 9 84 22 14 24 13 50 -31 16 -25 33 -46 39 -46 6 0 37 11 68 25 l56 25
-72 117 c-40 65 -86 139 -103 165 -16 26 -54 86 -83 133 -29 47 -59 85 -65 85
-7 0 -25 -7 -42 -15z m54 -194 c32 -65 65 -128 72 -140 12 -20 12 -24 -5 -37
-33 -23 -43 -17 -65 44 -29 80 -81 242 -81 253 0 26 26 -13 79 -120z"/>
<path d="M7452 1520 c-34 -9 -65 -20 -69 -23 -3 -4 6 -77 21 -164 14 -87 26
-163 26 -168 0 -25 -24 23 -75 150 -31 77 -60 144 -64 148 -8 8 -159 -29 -173
-42 -5 -4 24 -120 62 -259 39 -138 70 -258 70 -264 1 -35 15 -40 74 -27 31 8
56 18 56 24 0 5 -7 33 -15 60 -43 140 -105 378 -100 383 10 11 24 -14 64 -118
116 -305 116 -305 147 -303 52 4 56 9 49 56 -4 23 -22 127 -41 231 -22 123
-31 193 -24 200 11 11 13 9 45 -114 42 -161 90 -328 96 -334 3 -3 29 1 57 9
58 18 61 26 38 97 -7 24 -39 135 -70 248 -32 113 -59 211 -61 218 -6 16 -36
14 -113 -8z"/>
<path d="M5634 1494 c-60 -29 -94 -166 -59 -234 8 -16 38 -55 66 -87 49 -56
51 -60 46 -106 -5 -57 -25 -82 -57 -72 -20 6 -22 11 -15 49 13 81 15 78 -48
97 l-58 17 -9 -22 c-4 -13 -11 -43 -15 -68 -9 -60 12 -100 73 -139 39 -24 56
-29 112 -29 43 0 73 5 88 16 55 39 90 180 59 240 -8 16 -34 50 -57 74 -62 67
-73 93 -60 139 19 73 76 61 65 -14 l-7 -41 56 -14 c71 -17 80 -9 80 66 1 52
-2 58 -33 85 -66 54 -166 73 -227 43z"/>
<path d="M5970 1438 c0 -4 -32 -179 -70 -381 -17 -93 -30 -176 -28 -185 3 -16
117 -46 130 -33 4 3 14 47 23 96 9 50 23 128 31 175 9 47 20 110 25 141 4 32
13 77 18 100 6 24 11 47 11 51 0 3 -24 11 -52 18 -29 6 -61 14 -70 17 -10 2
-18 3 -18 1z"/>
<path d="M6203 1375 c-59 -36 -74 -96 -89 -352 -6 -114 -5 -123 16 -157 28
-46 68 -67 139 -73 70 -7 119 12 154 58 26 36 39 110 53 325 6 94 5 104 -16
143 -46 80 -171 107 -257 56z m132 -125 c-1 -68 -24 -337 -32 -356 -7 -19 -42
-18 -50 2 -6 17 23 390 33 405 3 6 16 9 27 7 20 -3 22 -9 22 -58z"/>
<path d="M6761 1381 c-11 -7 -13 -36 -7 -162 5 -99 4 -150 -2 -144 -6 6 -30
72 -55 148 -25 76 -49 143 -54 148 -6 6 -32 9 -59 7 l-49 -3 4 -185 c1 -102 6
-232 10 -290 l6 -105 57 -3 58 -3 -6 168 c-3 112 -2 163 5 153 5 -8 28 -82 52
-163 l42 -147 65 0 64 0 -6 88 c-3 48 -9 173 -12 277 -3 105 -10 198 -16 208
-9 19 -72 24 -97 8z"/>
</g>
</svg>
